<?xml version="1.0" standalone="no"?>
<!DOCTYPE svg PUBLIC "-//W3C//DTD SVG 20010904//EN"
 "http://www.w3.org/TR/2001/REC-SVG-20010904/DTD/svg10.dtd">
<svg version="1.0" xmlns="http://www.w3.org/2000/svg"
 width="500.000000pt" height="500.000000pt" viewBox="0 0 500.000000 500.000000"
 preserveAspectRatio="xMidYMid meet">

<g transform="translate(0.000000,500.000000) scale(0.100000,-0.100000)"
fill="#000000" stroke="none">
<path d="M960 3398 c0 -13 3 -40 6 -61 7 -36 8 -38 38 -32 l31 7 -23 -17 -23
-17 25 -25 c24 -24 65 -26 51 -3 -5 8 -11 8 -20 0 -11 -9 -14 -7 -12 9 1 12 5
21 9 21 5 0 4 9 -2 20 -6 11 -8 26 -4 32 4 7 3 8 -4 4 -7 -4 -12 -1 -12 9 0
10 5 13 13 9 6 -4 1 5 -12 19 -13 15 -28 24 -32 21 -5 -3 -9 2 -9 10 0 9 -4
16 -10 16 -5 0 -10 -10 -10 -22z m49 -49 c-7 -14 -6 -19 3 -19 9 0 9 -3 -2
-10 -22 -14 -33 -12 -27 5 4 8 2 17 -3 20 -6 4 -6 14 1 26 8 16 13 18 24 9 11
-9 12 -17 4 -31z"/>
<path d="M994 3372 c3 -5 1 -12 -6 -14 -8 -3 -9 -6 -1 -11 6 -4 13 0 17 8 3 8
0 17 -6 21 -6 4 -8 3 -4 -4z"/>
<path d="M1073 3325 c0 -8 4 -15 9 -15 4 0 8 4 8 9 0 6 -4 12 -8 15 -5 3 -9
-1 -9 -9z"/>
<path d="M1105 3311 c3 -6 10 -9 15 -6 4 3 11 0 13 -5 3 -6 4 -5 3 2 -1 7 -11
15 -21 16 -11 3 -15 0 -10 -7z"/>
<path d="M1208 3288 c20 -7 32 -17 32 -29 0 -25 15 -32 30 -14 8 9 8 15 2 15
-6 0 -13 -6 -15 -12 -3 -7 -6 -3 -6 9 -1 17 4 21 17 18 9 -3 4 1 -13 9 -16 8
-41 15 -55 15 -22 -1 -21 -2 8 -11z"/>
<path d="M1180 3275 c-6 -36 -7 -67 -3 -51 4 15 7 16 14 5 7 -12 9 -12 8 1 -1
19 -17 58 -19 45z"/>
<path d="M1294 3268 c-2 -3 1 -10 7 -14 8 -5 9 -3 4 6 -5 8 -4 11 3 6 6 -4 8
-14 5 -23 -5 -13 -3 -15 13 -8 10 4 27 8 36 9 10 1 20 5 24 8 3 4 -5 5 -19 4
-18 -2 -24 1 -20 10 4 10 -3 13 -22 12 -15 -1 -29 -6 -31 -10z"/>
<path d="M1400 3252 c0 -18 12 -42 21 -42 14 0 11 20 -6 36 -8 9 -15 11 -15 6z"/>
<path d="M1120 3240 c-18 -12 -2 -12 25 0 13 6 15 9 5 9 -8 0 -22 -4 -30 -9z"/>
<path d="M1069 3228 c-8 -7 -12 -12 -10 -11 2 2 10 -2 18 -9 11 -9 12 -7 7 7
-6 14 -4 16 6 10 9 -5 11 -4 6 3 -9 15 -9 15 -27 0z"/>
<path d="M1144 3208 c7 -32 -9 -38 -19 -8 -7 23 -25 17 -24 -8 0 -12 2 -13 6
-4 4 10 9 8 20 -7 13 -19 16 -20 29 -6 14 13 13 17 -1 37 l-17 23 6 -27z"/>
<path d="M1460 3205 c-11 -13 -10 -14 4 -9 9 3 16 10 16 15 0 13 -6 11 -20 -6z"/>
<path d="M1240 3190 c0 -5 5 -10 10 -10 6 0 10 5 10 10 0 6 -4 10 -10 10 -5 0
-10 -4 -10 -10z"/>
<path d="M1478 3188 c-16 -5 -28 -14 -28 -18 0 -5 12 -3 27 5 15 8 29 12 31
10 7 -7 -9 -25 -18 -20 -10 6 -20 -19 -12 -32 4 -5 17 -15 29 -22 17 -8 24 -8
30 1 12 20 12 37 1 45 -6 3 -8 1 -5 -4 6 -9 -12 -23 -29 -23 -11 0 -2 30 12
38 26 15 -5 31 -38 20z"/>
<path d="M820 3176 c0 -8 5 -27 10 -41 8 -22 13 -25 24 -16 12 10 14 6 11 -28
-2 -28 2 -45 16 -60 11 -12 23 -21 26 -21 4 0 -4 11 -16 24 -15 16 -18 25 -10
28 9 3 9 9 1 25 -6 11 -8 23 -4 27 3 4 12 -8 18 -26 9 -23 13 -27 14 -13 0 17
2 18 13 5 15 -19 39 -20 45 -1 3 10 0 12 -11 8 -9 -3 -21 1 -28 9 -6 8 -14 12
-16 10 -3 -3 -19 11 -35 30 -24 27 -33 32 -40 22 -6 -9 -7 -6 -3 10 4 13 2 22
-4 22 -6 0 -11 -6 -11 -14z"/>
<path d="M1173 3166 c-9 -11 -7 -18 10 -32 12 -10 16 -12 10 -4 -15 17 -17 34
-3 25 6 -3 7 1 4 9 -7 19 -6 19 -21 2z"/>
<path d="M1210 3118 c0 -7 7 -21 15 -31 7 -11 11 -25 8 -33 -7 -18 5 -18 23 1
14 13 14 15 -1 15 -9 0 -14 4 -10 10 3 5 -3 18 -15 30 -12 12 -20 15 -20 8z"/>
<path d="M1545 3101 c-3 -6 -1 -19 5 -28 11 -16 11 -16 6 -1 -3 10 -1 20 4 23
6 4 10 0 10 -7 0 -8 7 -23 15 -34 13 -17 13 -15 1 16 -15 36 -30 48 -41 31z"/>
<path d="M1285 3080 c-3 -6 1 -7 9 -4 18 7 21 14 7 14 -6 0 -13 -4 -16 -10z"/>
<path d="M1330 3075 c0 -2 9 -9 20 -15 15 -8 20 -8 20 3 0 7 -9 13 -20 14 -11
1 -20 0 -20 -2z"/>
<path d="M1020 3057 c14 -8 27 -12 30 -10 7 6 -23 23 -40 23 -8 0 -4 -6 10
-13z"/>
<path d="M1490 3060 c0 -5 5 -10 10 -10 6 0 10 5 10 10 0 6 -4 10 -10 10 -5 0
-10 -4 -10 -10z"/>
<path d="M1063 3045 c0 -8 4 -12 9 -9 4 3 8 9 8 15 0 5 -4 9 -8 9 -5 0 -9 -7
-9 -15z"/>
<path d="M1410 3045 c0 -15 35 -40 70 -48 18 -5 16 -3 -7 8 -34 16 -52 35 -32
35 16 0 3 13 -16 16 -8 1 -15 -4 -15 -11z"/>
<path d="M1525 3049 c-4 -6 -5 -12 -2 -15 2 -3 7 2 10 11 7 17 1 20 -8 4z"/>
<path d="M985 3040 c-16 -7 -17 -9 -3 -9 9 -1 20 4 23 9 7 11 7 11 -20 0z"/>
<path d="M1158 3043 c7 -3 16 -2 19 1 4 3 -2 6 -13 5 -11 0 -14 -3 -6 -6z"/>
<path d="M1570 3019 c5 -17 16 -39 24 -48 15 -16 15 -69 0 -93 -4 -7 -3 -8 4
-4 7 4 12 1 12 -8 0 -8 -5 -16 -12 -18 -7 -3 -8 -9 -2 -19 5 -8 9 -18 9 -24 0
-5 8 -10 17 -10 25 0 35 -15 18 -26 -12 -7 -10 -8 7 -6 12 2 26 7 30 12 5 4 2
5 -4 1 -7 -4 -13 -3 -13 2 0 10 49 46 62 47 15 0 20 15 5 15 -11 0 -14 5 -10
16 4 12 2 15 -8 12 -8 -3 -14 -11 -15 -19 -2 -30 -5 -33 -14 -19 -7 10 -10 11
-11 3 -3 -28 -4 -32 -11 -39 -5 -4 -8 1 -8 11 0 15 -3 16 -12 7 -7 -7 -14 -12
-17 -12 -4 0 -5 36 -4 80 2 82 -12 135 -41 159 -13 11 -14 9 -6 -20z"/>
<path d="M1165 3025 c-16 -7 -34 -11 -40 -8 -5 3 -4 0 3 -8 6 -7 12 -22 12
-33 0 -15 3 -17 12 -8 8 8 8 15 -2 27 -12 14 -10 16 15 13 20 -2 28 2 30 15 2
9 3 17 2 16 -1 0 -15 -7 -32 -14z"/>
<path d="M1376 3024 c-9 -24 -7 -27 9 -10 17 17 19 26 6 26 -5 0 -12 -7 -15
-16z"/>
<path d="M940 3024 c0 -3 7 -12 15 -20 8 -9 15 -11 15 -5 0 6 7 8 15 5 8 -4
15 -4 15 -1 0 3 -13 10 -30 16 -16 5 -30 8 -30 5z"/>
<path d="M1015 3020 c-3 -5 -1 -10 4 -10 6 0 11 5 11 10 0 6 -2 10 -4 10 -3 0
-8 -4 -11 -10z"/>
<path d="M1047 3009 c6 -22 23 -26 23 -5 0 8 -6 16 -14 19 -10 4 -12 0 -9 -14z"/>
<path d="M1217 3019 c7 -7 15 -10 18 -7 3 3 -2 9 -12 12 -14 6 -15 5 -6 -5z"/>
<path d="M1257 3017 c-3 -8 1 -14 8 -14 7 0 11 6 8 14 -3 7 -6 13 -8 13 -2 0
-5 -6 -8 -13z"/>
<path d="M1541 3014 c0 -11 3 -14 6 -6 3 7 2 16 -1 19 -3 4 -6 -2 -5 -13z"/>
<path d="M1296 3012 c-8 -14 19 -41 34 -32 11 7 10 11 -3 24 -17 18 -24 20
-31 8z"/>
<path d="M1090 2996 c0 -2 7 -7 16 -10 8 -3 12 -2 9 4 -6 10 -25 14 -25 6z"/>
<path d="M1214 2984 c3 -9 6 -22 6 -30 0 -11 4 -10 18 4 13 11 16 21 9 30 -14
18 -40 15 -33 -4z"/>
<path d="M966 2981 c-20 -8 -20 -8 0 -13 10 -3 27 -9 37 -13 12 -5 17 -2 17
10 0 9 -4 13 -10 10 -5 -3 -10 -1 -10 4 0 12 -7 13 -34 2z"/>
<path d="M1057 2958 c20 -23 40 -24 22 -2 -12 15 -11 16 10 9 16 -5 21 -4 17
4 -4 5 -20 9 -36 8 -26 -2 -27 -3 -13 -19z"/>
<path d="M1353 2973 c-17 -6 -16 -20 1 -26 10 -4 13 -1 9 9 -3 7 0 14 6 14 6
0 11 -4 11 -10 0 -5 5 -10 11 -10 8 0 8 5 -1 15 -13 16 -17 17 -37 8z"/>
<path d="M1489 2971 c7 -5 11 -13 8 -18 -3 -4 0 -19 7 -31 l13 -24 17 26 c16
25 16 26 -3 26 -10 0 -21 7 -25 15 -3 8 -11 15 -18 15 -10 0 -10 -2 1 -9z"/>
<path d="M1030 2951 c0 -5 7 -12 16 -15 14 -5 15 -4 4 9 -14 17 -20 19 -20 6z"/>
<path d="M1106 2935 c-10 -8 -23 -12 -29 -8 -6 3 -7 1 -3 -5 4 -7 12 -12 17
-12 17 0 48 -43 49 -67 0 -12 -12 -34 -27 -48 -15 -14 -22 -25 -15 -25 6 0 12
5 12 12 0 6 3 8 7 5 3 -4 12 -2 20 5 11 9 12 7 7 -8 -4 -15 -4 -16 4 -4 6 9 7
33 2 60 -5 26 -4 53 1 65 9 18 9 19 -4 3 -8 -10 -17 -18 -20 -18 -12 0 -16 34
-6 46 15 18 9 17 -15 -1z"/>
<path d="M1280 2930 c0 -5 5 -10 11 -10 5 0 7 5 4 10 -3 6 -8 10 -11 10 -2 0
-4 -4 -4 -10z"/>
<path d="M1410 2930 c10 -6 11 -10 3 -10 -7 0 -13 -4 -13 -10 0 -5 7 -10 15
-10 8 0 15 9 15 20 0 12 -7 20 -17 20 -15 0 -16 -2 -3 -10z"/>
<path d="M1351 2908 c9 -17 13 -18 20 -7 13 21 11 25 -11 26 -17 2 -19 -1 -9
-19z"/>
<path d="M1540 2910 c0 -5 5 -10 11 -10 5 0 7 5 4 10 -3 6 -8 10 -11 10 -2 0
-4 -4 -4 -10z"/>
<path d="M1705 2901 c-3 -6 4 -15 15 -21 11 -6 18 -15 16 -19 -3 -4 2 -8 11
-8 12 0 9 6 -10 23 -14 12 -23 25 -20 28 4 3 4 6 0 6 -3 0 -8 -4 -12 -9z"/>
<path d="M1167 2894 c-11 -11 -8 -26 3 -19 6 3 10 -2 11 -12 0 -10 3 -13 5 -6
7 15 -10 46 -19 37z"/>
<path d="M1295 2890 c-3 -5 1 -10 10 -10 9 0 13 5 10 10 -3 6 -8 10 -10 10 -2
0 -7 -4 -10 -10z"/>
<path d="M649 2878 c0 -7 -2 -25 -4 -40 -2 -15 1 -31 7 -34 8 -5 9 -1 5 10 -6
14 -3 16 16 11 15 -4 18 -3 8 3 -10 8 -11 14 -1 32 9 18 14 20 21 9 5 -8 3
-17 -4 -22 -8 -6 -8 -7 3 -4 8 2 15 9 15 15 0 5 4 14 9 19 5 4 6 3 2 -4 -3 -6
-2 -14 4 -18 5 -3 10 1 10 9 0 12 11 16 48 16 53 0 85 -13 57 -23 -9 -4 -13
-3 -10 3 3 6 2 10 -4 10 -14 0 -23 -18 -11 -22 6 -2 4 -11 -5 -23 -13 -15 -15
-16 -12 -3 7 22 -2 30 -18 15 -10 -9 -7 -16 14 -32 17 -12 26 -28 24 -40 -3
-17 -2 -17 10 4 12 20 15 21 21 6 3 -9 4 -20 1 -25 -3 -4 2 -10 10 -14 8 -3
15 -10 15 -16 0 -6 -5 -8 -12 -4 -7 4 -8 3 -4 -4 4 -7 1 -12 -8 -12 -9 0 -16
-7 -16 -16 0 -17 58 -74 75 -74 5 1 -3 11 -19 24 -31 26 -30 55 1 57 16 0 16
2 -2 10 -17 7 -16 8 9 6 17 -1 31 4 34 11 3 9 -3 11 -22 6 -25 -6 -32 2 -27
29 1 5 -2 6 -7 3 -8 -5 -32 35 -32 53 0 5 9 11 20 14 11 3 20 1 20 -3 0 -5 -8
-11 -17 -13 -17 -4 -17 -5 0 -6 9 0 17 -8 17 -16 0 -20 19 -19 27 0 3 9 -3 25
-13 36 -11 12 -19 24 -19 28 0 3 -3 5 -7 4 -4 -2 -10 6 -13 17 -6 18 -15 20
-111 20 -76 0 -104 -3 -105 -12z m235 -40 c-3 -5 -9 -6 -14 -3 -5 3 -15 -3
-22 -15 -7 -11 -19 -20 -26 -20 -10 0 -10 4 2 16 9 8 16 20 16 25 0 5 11 8 24
7 14 -1 22 -6 20 -10z m-14 -153 c-7 -9 -15 -13 -19 -10 -3 3 1 10 9 15 21 14
24 12 10 -5z"/>
<path d="M1217 2870 c3 -11 9 -17 15 -14 5 3 4 12 -3 20 -16 19 -18 18 -12 -6z"/>
<path d="M1543 2883 c-19 -4 -23 -11 -23 -39 0 -23 4 -33 11 -28 6 3 8 15 6
26 -4 14 0 22 14 25 10 3 19 9 19 14 0 5 -1 8 -2 8 -2 -1 -13 -4 -25 -6z"/>
<path d="M1341 2871 c-19 -5 -21 -8 -10 -17 8 -6 22 -14 33 -18 11 -3 16 -12
12 -21 -3 -8 0 -17 6 -21 6 -4 8 -3 4 4 -3 5 -1 12 4 14 6 2 2 13 -10 25 -27
30 -26 33 13 28 25 -4 28 -3 12 4 -23 11 -31 11 -64 2z"/>
<path d="M1160 2844 c0 -6 6 -17 14 -23 11 -9 15 -8 20 4 4 10 2 14 -5 9 -6
-4 -15 0 -20 7 -5 8 -9 9 -9 3z"/>
<path d="M1561 2834 c0 -11 3 -14 6 -6 3 7 2 16 -1 19 -3 4 -6 -2 -5 -13z"/>
<path d="M705 2820 c-3 -5 -2 -10 4 -10 5 0 13 5 16 10 3 6 2 10 -4 10 -5 0
-13 -4 -16 -10z"/>
<path d="M1265 2807 c-4 -10 -5 -21 -1 -24 10 -10 18 4 13 24 -4 17 -4 17 -12
0z"/>
<path d="M1720 2806 c7 -7 13 -7 20 0 6 6 3 10 -10 10 -13 0 -16 -4 -10 -10z"/>
<path d="M1767 2813 c-4 -3 -7 -16 -6 -27 0 -19 1 -19 10 3 10 24 8 36 -4 24z"/>
<path d="M1179 2783 c-13 -16 -12 -17 4 -4 9 7 17 15 17 17 0 8 -8 3 -21 -13z"/>
<path d="M1334 2775 c3 -9 0 -15 -10 -15 -9 0 -12 5 -8 13 4 6 -1 5 -10 -4 -9
-8 -19 -27 -22 -42 -4 -23 -1 -27 18 -26 22 0 22 1 3 9 -11 5 -14 9 -7 9 6 1
12 6 12 12 0 5 -6 7 -12 3 -7 -4 -10 -3 -5 1 4 5 17 10 28 12 11 2 27 9 35 17
11 12 11 15 -2 20 -23 9 -27 7 -20 -9z"/>
<path d="M1506 2764 c-8 -22 -4 -25 11 -9 7 8 9 16 4 19 -5 3 -12 -1 -15 -10z"/>
<path d="M1782 2768 c-1 -9 -8 -19 -14 -21 -10 -4 -10 -6 0 -6 6 -1 12 -6 12
-12 0 -5 -4 -7 -10 -4 -5 3 -10 1 -10 -4 0 -11 13 -15 39 -12 7 2 10 -2 6 -9
-5 -8 1 -11 16 -8 17 2 24 -2 24 -14 0 -9 4 -20 9 -25 5 -4 6 -3 2 5 -4 6 -3
12 3 12 5 0 8 6 7 13 -4 25 -18 37 -46 37 -25 0 -29 4 -33 33 -2 17 -5 25 -5
15z"/>
<path d="M1036 2761 c-4 -5 0 -12 6 -14 10 -4 10 -6 1 -6 -21 -2 7 -51 29 -51
10 0 18 5 18 11 0 5 -5 7 -11 3 -16 -9 -29 17 -19 37 13 23 -11 42 -24 20z"/>
<path d="M901 2744 c0 -11 3 -14 6 -6 3 7 2 16 -1 19 -3 4 -6 -2 -5 -13z"/>
<path d="M1525 2725 c-7 -26 -9 -27 -16 -10 -7 19 -8 18 -8 -2 -1 -24 6 -28
27 -14 8 4 12 19 10 32 -4 23 -5 23 -13 -6z"/>
<path d="M1150 2730 c0 -5 5 -10 10 -10 6 0 10 5 10 10 0 6 -4 10 -10 10 -5 0
-10 -4 -10 -10z"/>
<path d="M1250 2700 c0 -19 3 -21 12 -12 9 9 9 15 0 24 -9 9 -12 7 -12 -12z"/>
<path d="M1444 2709 c-3 -6 -2 -15 3 -20 5 -5 9 -1 9 11 0 23 -2 24 -12 9z"/>
<path d="M1408 2703 c7 -3 16 -2 19 1 4 3 -2 6 -13 5 -11 0 -14 -3 -6 -6z"/>
<path d="M1580 2690 c0 -5 5 -10 10 -10 6 0 10 5 10 10 0 6 -4 10 -10 10 -5 0
-10 -4 -10 -10z"/>
<path d="M920 2678 c0 -4 -10 -8 -22 -8 -21 0 -21 0 -2 -15 25 -19 35 -19 28
0 -4 8 -2 15 4 15 15 0 24 -32 12 -40 -14 -9 -2 -40 16 -40 8 0 14 5 14 10 0
6 -4 10 -9 10 -5 0 -7 9 -4 20 3 11 0 26 -6 33 -6 8 -9 16 -6 19 3 2 -2 5 -10
5 -8 0 -15 -4 -15 -9z"/>
<path d="M1061 2670 c-12 -7 -12 -12 3 -34 29 -45 50 -27 23 21 -9 15 -16 20
-26 13z m29 -40 c0 -5 -2 -10 -4 -10 -3 0 -8 5 -11 10 -3 6 -1 10 4 10 6 0 11
-4 11 -10z"/>
<path d="M1110 2660 c-13 -8 -12 -10 3 -10 19 0 24 -30 5 -30 -9 0 -8 -4 2
-10 25 -16 30 -12 26 22 -4 35 -13 43 -36 28z"/>
<path d="M1287 2663 c-4 -3 -7 -13 -7 -21 0 -18 13 -7 16 13 2 17 1 18 -9 8z"/>
<path d="M1760 2656 c0 -9 5 -16 10 -16 6 0 10 4 10 9 0 6 -4 13 -10 16 -5 3
-10 -1 -10 -9z"/>
<path d="M1310 2645 c0 -8 5 -15 10 -15 6 0 10 7 10 15 0 8 -4 15 -10 15 -5 0
-10 -7 -10 -15z"/>
<path d="M1356 2651 c-4 -5 3 -7 14 -4 23 6 26 13 6 13 -8 0 -17 -4 -20 -9z"/>
<path d="M1460 2635 c-13 -14 -20 -28 -17 -32 4 -3 7 -1 7 5 0 7 6 12 14 12
18 0 40 27 28 34 -5 3 -20 -6 -32 -19z"/>
<path d="M1170 2639 c0 -5 5 -7 10 -4 6 3 10 8 10 11 0 2 -4 4 -10 4 -5 0 -10
-5 -10 -11z"/>
<path d="M1846 2632 c2 -2 -2 -14 -8 -26 -10 -20 -10 -20 8 -4 12 12 15 21 8
27 -6 5 -9 6 -8 3z"/>
<path d="M2137 2626 c-137 -51 -181 -219 -88 -337 63 -81 213 -90 289 -19 l23
22 -21 23 -22 23 -35 -24 c-93 -63 -203 0 -203 116 0 53 23 96 63 120 43 27
87 25 131 -5 36 -24 38 -25 61 -8 30 22 28 29 -17 65 -43 35 -123 46 -181 24z"/>
<path d="M860 2617 c0 -10 5 -17 11 -17 5 0 8 -4 5 -9 -4 -5 3 -7 14 -4 12 3
19 6 18 7 -2 1 -13 10 -25 20 -20 17 -23 17 -23 3z"/>
<path d="M3170 2425 l0 -205 40 0 40 0 0 85 0 85 81 0 80 0 -3 33 -3 32 -77 3
-78 3 0 54 0 55 90 0 90 0 0 30 0 30 -130 0 -130 0 0 -205z"/>
<path d="M3470 2425 l0 -205 35 0 35 0 0 205 0 205 -35 0 -35 0 0 -205z"/>
<path d="M1095 2579 c-4 -11 -4 -23 -1 -26 3 -4 6 1 6 10 0 10 5 17 10 17 6 0
10 5 10 10 0 18 -19 10 -25 -11z"/>
<path d="M1607 2593 c-12 -11 -8 -23 8 -23 8 0 15 7 15 15 0 16 -12 20 -23 8z"/>
<path d="M1710 2590 c0 -5 5 -10 10 -10 6 0 10 5 10 10 0 6 -4 10 -10 10 -5 0
-10 -4 -10 -10z"/>
<path d="M2958 2568 c-2 -25 -8 -34 -25 -36 -19 -3 -23 -10 -23 -38 0 -30 3
-34 25 -34 l25 0 0 -100 0 -100 33 -20 c57 -35 117 -25 117 20 0 26 -4 29 -37
32 l-38 3 -3 83 -3 82 41 0 c39 0 40 1 40 35 0 34 -1 35 -40 35 -39 0 -40 1
-40 35 0 33 -2 35 -34 35 -32 0 -35 -3 -38 -32z"/>
<path d="M1468 2583 c7 -3 16 -2 19 1 4 3 -2 6 -13 5 -11 0 -14 -3 -6 -6z"/>
<path d="M942 2571 c-18 -3 -34 -10 -35 -16 -1 -5 -8 -9 -16 -7 -9 2 -12 -2
-7 -13 3 -9 6 -19 6 -21 0 -2 5 -4 11 -4 5 0 7 5 3 12 -4 6 -3 8 4 5 5 -4 8
-15 5 -25 -5 -21 37 -64 44 -44 3 6 9 12 14 12 4 0 6 -6 3 -14 -3 -8 4 -21 16
-29 13 -9 17 -17 10 -20 -6 -3 -6 -5 2 -3 18 3 22 26 4 26 -20 0 -31 19 -17
33 15 15 14 40 -5 63 -14 18 -15 18 -4 -3 9 -19 8 -23 -5 -23 -10 0 -13 -5 -9
-12 4 -7 3 -8 -4 -4 -7 4 -12 1 -12 -9 0 -15 -2 -15 -15 -1 -18 18 -19 29 -3
24 20 -7 35 14 30 40 -3 17 -1 23 7 18 6 -4 11 -1 11 8 0 9 -1 15 -2 15 -2 -1
-18 -4 -36 -8z m8 -36 c0 -14 -4 -25 -10 -25 -5 0 -10 11 -10 25 0 14 5 25 10
25 6 0 10 -11 10 -25z"/>
<path d="M1555 2570 c-3 -5 -1 -10 4 -10 6 0 11 5 11 10 0 6 -2 10 -4 10 -3 0
-8 -4 -11 -10z"/>
<path d="M1802 2555 c0 -16 2 -22 5 -12 2 9 2 23 0 30 -3 6 -5 -1 -5 -18z"/>
<path d="M1820 2535 c-6 -16 -15 -23 -28 -20 -10 2 -19 -2 -19 -8 0 -7 -4 -20
-8 -31 -7 -16 -5 -17 12 -8 14 8 23 8 31 0 9 -9 12 -9 12 -1 0 6 -6 13 -12 16
-9 3 -6 11 10 26 12 12 22 28 22 36 0 23 -9 18 -20 -10z m-27 -40 c-3 -9 -8
-14 -10 -11 -3 3 -2 9 2 15 9 16 15 13 8 -4z"/>
<path d="M1710 2530 c0 -5 5 -10 10 -10 6 0 10 5 10 10 0 6 -4 10 -10 10 -5 0
-10 -4 -10 -10z"/>
<path d="M2450 2517 c-48 -23 -50 -26 -38 -53 8 -17 17 -23 27 -19 30 12 80
17 105 11 19 -5 26 -13 26 -30 0 -22 -5 -24 -65 -28 -75 -5 -115 -32 -115 -79
0 -83 80 -125 160 -84 27 14 30 14 30 0 0 -11 10 -15 35 -15 l35 0 0 110 c0
125 -11 160 -60 185 -34 18 -104 18 -140 2z m120 -192 c0 -14 -8 -29 -20 -35
-30 -16 -74 -9 -78 13 -6 29 17 47 59 47 35 0 39 -3 39 -25z"/>
<path d="M2815 2513 c-20 -11 -30 -12 -33 -4 -2 6 -19 11 -38 11 l-34 0 0
-150 0 -150 35 0 35 0 0 89 c0 107 18 141 76 141 33 0 34 1 34 40 0 35 -3 40
-22 40 -13 -1 -36 -8 -53 -17z"/>
<path d="M3638 2513 c-41 -16 -45 -28 -24 -56 11 -14 19 -16 40 -7 45 17 94
12 106 -9 18 -34 12 -38 -59 -43 -73 -5 -94 -17 -110 -60 -11 -31 4 -79 32
-100 27 -21 95 -23 121 -3 25 19 36 19 36 0 0 -10 11 -15 35 -15 l34 0 -5 118
c-3 64 -10 127 -16 139 -24 49 -117 67 -190 36z m132 -181 c0 -47 -80 -69
-104 -29 -15 25 16 47 66 47 30 0 38 -4 38 -18z"/>
<path d="M4010 2514 c-22 -10 -36 -11 -38 -4 -2 5 -19 10 -38 10 l-34 0 0
-150 0 -150 40 0 40 0 0 93 c0 111 12 137 66 137 33 0 34 1 34 40 0 46 -11 49
-70 24z"/>
<path d="M4159 2507 c-126 -84 -69 -287 81 -287 43 0 103 20 114 39 3 5 -1 16
-8 27 -12 16 -18 17 -40 6 -46 -21 -92 -15 -115 14 -12 15 -21 31 -21 35 0 5
45 9 100 9 l100 0 0 43 c0 54 -17 86 -59 114 -45 30 -107 31 -152 0z m119 -49
c5 -7 13 -23 16 -35 7 -22 5 -23 -58 -23 -72 0 -81 10 -46 48 23 24 72 29 88
10z"/>
<path d="M1100 2485 c0 -8 2 -15 4 -15 2 0 6 7 10 15 3 8 1 15 -4 15 -6 0 -10
-7 -10 -15z"/>
<path d="M1405 2490 c3 -5 8 -10 11 -10 2 0 4 5 4 10 0 6 -5 10 -11 10 -5 0
-7 -4 -4 -10z"/>
<path d="M901 2465 c0 -23 27 -45 45 -38 17 6 17 5 5 -10 -7 -9 -17 -14 -22
-11 -10 6 -12 -7 -3 -30 3 -9 11 -13 16 -10 7 4 6 9 -1 14 -9 5 -8 10 4 20 12
10 15 10 15 -1 0 -9 12 -14 33 -15 17 -1 24 0 15 3 -9 2 -24 15 -33 29 -9 14
-22 23 -30 22 -8 -2 -21 6 -29 17 -9 11 -15 16 -15 10z"/>
<path d="M995 2450 c3 -5 8 -10 11 -10 2 0 4 5 4 10 0 6 -5 10 -11 10 -5 0 -7
-4 -4 -10z"/>
<path d="M1110 2445 c0 -8 4 -15 10 -15 5 0 7 7 4 15 -4 8 -8 15 -10 15 -2 0
-4 -7 -4 -15z"/>
<path d="M1793 2445 c0 -8 4 -15 9 -15 4 0 8 4 8 9 0 6 -4 12 -8 15 -5 3 -9
-1 -9 -9z"/>
<path d="M1131 2424 c-12 -14 -12 -17 0 -25 8 -5 19 -8 24 -8 6 0 4 3 -2 6 -7
2 -13 9 -13 15 0 6 7 7 16 4 14 -5 15 -4 4 9 -15 18 -12 18 -29 -1z"/>
<path d="M1240 2420 c0 -5 5 -10 10 -10 6 0 10 5 10 10 0 6 -4 10 -10 10 -5 0
-10 -4 -10 -10z"/>
<path d="M1335 2420 c3 -5 10 -10 16 -10 5 0 9 5 9 10 0 6 -7 10 -16 10 -8 0
-12 -4 -9 -10z"/>
<path d="M1770 2410 c6 -11 15 -20 20 -20 6 0 5 9 -2 20 -7 11 -16 20 -21 20
-4 0 -3 -9 3 -20z"/>
<path d="M1180 2409 c0 -5 5 -7 10 -4 6 3 10 8 10 11 0 2 -4 4 -10 4 -5 0 -10
-5 -10 -11z"/>
<path d="M1169 2378 c-1 -7 -1 -21 0 -30 1 -10 -3 -18 -8 -18 -6 0 -10 3 -10
8 3 20 -2 42 -10 42 -8 0 -1 -47 13 -80 10 -24 45 -42 62 -32 12 7 10 11 -11
20 -21 10 -25 10 -19 0 5 -9 2 -9 -9 1 -13 10 -15 17 -6 27 12 15 33 9 24 -7
-3 -5 1 -6 9 -3 23 9 19 34 -5 34 -19 0 -19 1 -5 16 9 8 16 20 16 25 0 14 -40
11 -41 -3z"/>
<path d="M1760 2381 c0 -6 -1 -14 -2 -18 -2 -3 5 -7 15 -9 21 -3 22 3 2 22 -8
9 -15 11 -15 5z"/>
<path d="M961 2371 c-8 -5 -11 -16 -8 -24 3 -8 0 -20 -6 -26 -8 -8 -8 -14 0
-22 6 -6 9 -18 6 -25 -3 -8 2 -25 11 -39 9 -13 13 -31 10 -39 -4 -9 1 -18 10
-22 9 -3 14 -10 11 -14 -7 -11 22 -33 34 -25 6 3 20 1 31 -5 12 -6 20 -7 20
-1 0 5 -8 12 -17 14 -17 4 -17 5 -1 6 17 1 18 15 9 73 0 4 -10 5 -21 3 -11 -2
-20 1 -20 7 0 6 -3 8 -6 5 -4 -4 5 -22 20 -42 31 -40 21 -48 -12 -10 -12 14
-27 25 -33 25 -6 0 -8 9 -4 23 4 15 3 18 -3 8 -15 -21 -25 5 -11 30 8 16 13
18 19 9 4 -7 12 -10 18 -6 5 3 13 -4 16 -17 6 -20 7 -20 17 -5 11 19 -4 58
-22 58 -5 0 -14 10 -19 23 -8 20 -9 21 -11 2 -1 -11 -1 -23 0 -27 0 -5 -3 -8
-9 -8 -5 0 -10 16 -10 35 0 28 3 33 18 29 14 -5 15 -4 2 5 -18 13 -21 13 -39
2z m9 -72 c0 -6 -4 -7 -10 -4 -5 3 -10 11 -10 16 0 6 5 7 10 4 6 -3 10 -11 10
-16z m88 -104 c-3 -3 -9 2 -12 12 -6 14 -5 15 5 6 7 -7 10 -15 7 -18z m-28
-20 c19 -17 19 -20 4 -28 -10 -6 -20 -5 -27 3 -9 10 -8 12 5 7 12 -4 15 -2 11
8 -3 8 -9 13 -13 10 -4 -3 -13 2 -19 9 -18 22 13 14 39 -9z"/>
<path d="M1020 2348 c0 -16 5 -28 10 -28 13 0 13 20 0 40 -8 12 -10 9 -10 -12z"/>
<path d="M1395 2363 c11 -3 25 -9 31 -14 8 -6 13 -5 17 3 3 9 -7 13 -32 14
-20 1 -27 0 -16 -3z"/>
<path d="M1240 2350 c0 -5 5 -10 10 -10 6 0 10 5 10 10 0 6 -4 10 -10 10 -5 0
-10 -4 -10 -10z"/>
<path d="M1470 2340 c0 -11 5 -20 10 -20 6 0 10 9 10 20 0 11 -4 20 -10 20 -5
0 -10 -9 -10 -20z"/>
<path d="M1530 2330 c-8 -5 -12 -11 -9 -14 2 -3 11 -1 19 4 8 5 12 11 9 14 -2
3 -11 1 -19 -4z"/>
<path d="M1668 2329 c-21 -12 -24 -29 -4 -29 7 0 16 9 19 20 3 11 4 20 4 20
-1 0 -10 -5 -19 -11z"/>
<path d="M1728 2326 c-10 -7 -18 -16 -18 -20 0 -11 21 -6 36 8 26 27 13 36
-18 12z"/>
<path d="M1771 2324 c0 -11 3 -14 6 -6 3 7 2 16 -1 19 -3 4 -6 -2 -5 -13z"/>
<path d="M1246 2311 c-7 -10 22 -37 30 -28 4 3 -1 13 -9 22 -9 8 -18 11 -21 6z"/>
<path d="M1455 2280 c3 -5 8 -10 11 -10 2 0 4 5 4 10 0 6 -5 10 -11 10 -5 0
-7 -4 -4 -10z"/>
<path d="M1485 2280 c-3 -5 1 -10 9 -10 9 0 16 5 16 10 0 6 -4 10 -9 10 -6 0
-13 -4 -16 -10z"/>
<path d="M1630 2270 c-22 -7 -21 -8 13 -9 23 -1 36 3 32 9 -7 11 -10 11 -45 0z"/>
<path d="M1690 2270 c0 -5 5 -10 11 -10 5 0 7 5 4 10 -3 6 -8 10 -11 10 -2 0
-4 -4 -4 -10z"/>
<path d="M1720 2268 c0 -4 4 -8 9 -8 6 0 12 4 15 8 3 5 -1 9 -9 9 -8 0 -15 -4
-15 -9z"/>
<path d="M1085 2178 c4 -10 13 -18 20 -18 7 0 11 -11 10 -27 -1 -20 -8 -29
-25 -33 -23 -6 -23 -7 9 -13 41 -9 49 -3 33 23 -7 12 -8 21 -2 25 6 4 9 1 8
-7 -2 -7 4 -13 12 -13 8 0 16 6 16 13 1 6 2 16 3 21 0 5 9 12 19 14 9 3 -6 5
-33 6 -28 0 -57 7 -64 14 -10 10 -11 9 -6 -5z m72 -24 c-3 -3 -12 -4 -19 -1
-8 3 -5 6 6 6 11 1 17 -2 13 -5z"/>
<path d="M1428 2173 c-11 -3 -18 -14 -18 -29 0 -14 -4 -23 -9 -19 -6 3 -8 14
-6 25 2 11 0 20 -4 20 -13 0 -19 -69 -6 -74 5 -2 0 -5 -13 -5 -16 -1 -22 4
-20 16 2 13 -5 17 -30 19 -18 1 -35 -2 -38 -7 -3 -5 -10 -9 -15 -9 -6 0 -7 5
-4 10 3 6 -3 10 -13 10 -11 0 -22 -7 -26 -15 -3 -8 -16 -15 -28 -14 -22 0 -22
1 -3 9 20 9 20 9 0 9 -21 1 -45 -16 -45 -32 0 -5 15 -6 33 -2 82 17 83 17 67
6 -13 -9 -13 -11 1 -11 8 0 21 6 28 13 8 6 11 7 8 1 -4 -7 22 -10 76 -11 45
-1 74 1 65 4 -16 4 -16 6 0 24 12 14 31 19 77 21 l60 1 -60 7 c-56 6 -54 7 36
8 77 2 96 5 96 17 0 12 -13 14 -64 13 -34 -1 -63 -6 -63 -10 0 -4 -16 -8 -36
-8 -21 0 -33 4 -29 10 3 6 5 9 3 9 -2 -1 -11 -3 -20 -6z m-96 -69 c-9 -7 -19
-9 -22 -6 -3 4 -9 10 -13 13 -4 3 6 6 23 6 26 0 27 -2 12 -13z"/>
<path d="M1666 2164 c-4 -11 1 -13 19 -10 17 3 23 1 19 -6 -4 -6 -2 -8 4 -4 6
3 14 2 17 -4 4 -6 3 -10 -2 -9 -20 3 -25 -2 -13 -16 15 -18 30 -11 30 14 0 34
-63 64 -74 35z"/>
<path d="M1253 2155 c0 -8 4 -15 9 -15 4 0 8 7 8 15 0 8 -4 15 -8 15 -5 0 -9
-7 -9 -15z"/>
<path d="M1280 2155 c0 -8 5 -15 11 -15 5 0 7 5 4 10 -3 6 1 10 9 10 9 0 16
-4 16 -10 0 -5 4 -10 10 -10 5 0 7 7 4 15 -4 8 -17 15 -30 15 -15 0 -24 -6
-24 -15z"/>
<path d="M1210 2150 c0 -5 5 -10 10 -10 6 0 10 5 10 10 0 6 -4 10 -10 10 -5 0
-10 -4 -10 -10z"/>
<path d="M1086 2135 c4 -8 8 -15 10 -15 2 0 4 7 4 15 0 8 -4 15 -10 15 -5 0
-7 -7 -4 -15z"/>
<path d="M1573 2119 c-1 -14 3 -19 13 -15 8 3 14 1 14 -4 0 -6 9 -10 20 -10
11 0 20 5 20 11 0 8 5 8 15 -1 8 -7 15 -9 15 -5 0 4 6 2 14 -4 8 -7 17 -8 20
-3 3 6 -1 15 -9 22 -8 7 -12 16 -9 21 3 5 -2 9 -10 9 -9 0 -16 -4 -16 -10 0
-5 -7 -10 -15 -10 -8 0 -15 -5 -15 -11 0 -8 -5 -7 -16 2 -14 12 -14 14 3 20
14 6 11 8 -12 8 -24 1 -31 -3 -32 -20z"/>
<path d="M1030 2116 c0 -2 7 -7 16 -10 8 -3 12 -2 9 4 -6 10 -25 14 -25 6z"/>
<path d="M1452 2113 c10 -2 15 -10 11 -19 -4 -10 2 -14 21 -14 18 0 26 6 27
18 0 10 3 12 6 5 7 -18 23 -16 23 2 0 18 -46 21 -53 3 -4 -10 -6 -10 -6 0 -1
6 -11 11 -23 11 -17 -1 -18 -3 -6 -6z"/>
<path d="M1634 2013 c7 -14 -5 -23 -39 -29 -20 -3 -23 -1 -18 12 4 12 2 15 -8
12 -8 -3 -13 -12 -11 -20 1 -10 -4 -15 -15 -14 -19 1 -20 -2 -9 -47 4 -19 3
-26 -4 -22 -15 9 -12 -7 6 -33 8 -12 19 -20 24 -17 4 3 13 -2 20 -10 14 -17
38 -19 60 -5 11 7 7 9 -15 6 -16 -2 -22 -1 -13 1 9 2 22 11 29 19 10 12 9 13
-7 8 -17 -5 -17 -4 1 7 11 7 23 17 27 23 4 6 10 7 15 3 4 -5 3 -11 -2 -15 -6
-4 -11 -14 -13 -22 -3 -11 2 -10 17 4 23 21 29 80 9 92 -7 5 -8 3 -3 -6 5 -8
4 -11 -3 -6 -6 4 -9 13 -5 21 3 8 0 15 -7 15 -7 0 -19 8 -27 18 -8 9 -12 12
-9 5z m19 -30 c4 -3 2 -13 -5 -20 -9 -11 -9 -16 2 -23 24 -15 3 -23 -22 -9
-12 7 -26 12 -30 11 -5 -1 -8 3 -8 8 0 6 -4 10 -9 10 -4 0 -6 -11 -3 -25 6
-35 -4 -31 -24 8 -9 17 -13 29 -9 25 4 -4 18 -3 32 3 16 6 22 6 18 -1 -10 -16
11 -12 25 5 14 16 23 19 33 8z m-48 -72 c3 -5 1 -12 -5 -16 -5 -3 -10 1 -10 9
0 18 6 21 15 7z m-9 -53 c-6 -4 -14 0 -19 8 -5 8 -14 11 -20 7 -8 -4 -7 -1 1
9 12 15 15 15 31 0 11 -11 13 -20 7 -24z"/>
<path d="M1108 1998 c0 -7 -2 -25 -3 -39 -2 -31 -12 -49 -26 -49 -6 0 -7 4 -4
10 3 5 2 17 -3 26 -7 12 -9 9 -10 -15 0 -17 4 -33 9 -37 5 -3 7 -9 4 -14 -3
-5 4 -8 15 -7 21 1 29 17 9 17 -8 0 -8 5 1 15 7 8 19 15 26 15 8 0 14 7 14 15
0 8 -4 15 -10 15 -5 0 -10 4 -10 9 0 5 8 8 18 7 9 0 16 4 15 11 -1 6 4 14 12
16 9 4 12 0 10 -13 -3 -14 1 -17 12 -13 10 4 14 2 9 -5 -3 -6 -2 -13 4 -17 5
-3 10 -22 10 -41 0 -28 -4 -34 -17 -32 -10 2 -23 10 -30 18 -6 8 -15 12 -19 8
-4 -4 -13 -3 -21 3 -7 6 -13 8 -13 4 0 -4 8 -14 18 -22 9 -8 12 -12 5 -9 -6 4
-14 2 -18 -4 -4 -6 -11 -8 -16 -5 -16 11 -9 -7 9 -21 25 -19 69 -17 81 4 6 9
11 13 11 9 0 -5 6 -2 14 5 7 8 13 35 13 61 0 39 -4 51 -25 67 -28 22 -91 27
-94 8z m32 -12 c9 -12 8 -15 -8 -13 -12 0 -18 6 -15 14 6 16 8 16 23 -1z m33
-130 c3 -7 -6 -13 -20 -14 -27 -2 -46 5 -39 16 7 12 55 10 59 -2z"/>
<path d="M1081 1986 c-7 -8 -8 -17 -3 -20 6 -3 12 3 15 14 6 24 4 25 -12 6z"/>
</g>
</svg>
